# xmcd
#
# Track frame offsets:
#	150
#	16901
#	34229
#	45787
#	60432
#	72581
#	83735
#	96981
#	111157
#	123739
#	135862
#	150078
#	164104
#	177580
#	189222
#	220389
#
# Disc length: 3510 seconds
#
# Revision: 1
# Processed by: cddbd v1.5.2PL0 Copyright (c) Steve Scherf et al.
# Submitted via: audiograbber 1.83.01
#
DISCID=d30db410
DTITLE=Cash, Johnny - ASK-1547
DYEAR=1900
DGENRE=
TTITLE0=Cash, Johnny - (Ghost) Riders in the Sky
TTITLE1=Cash, Johnny - A Boy Named Sue
TTITLE2=Cash, Johnny - Cry Cry Cry
TTITLE3=Cash, Johnny - Don't Take Your Guns to Town
TTITLE4=Cash, Johnny - Folsom Prison Blues
TTITLE5=Cash, Johnny - Get Rhythm
TTITLE6=Cash, Johnny - Give My Love to Rose
TTITLE7=Highwaymen, The - Highwayman
TTITLE8=Cash, Johnny - I Still Miss Someone
TTITLE9=Cash, Johnny - I Walk the Line
TTITLE10=Cash, Johnny and Cash, June Carter - It Ain't Me, Babe
TTITLE11=Cash, Johnny - I've Been Everywhere
TTITLE12=Cash, Johnny - Man in Black
TTITLE13=Cash, Johnny - Ring of Fire
TTITLE14=Cash, Johnny - Sunday Mornin' Coming Down
TTITLE15=Data - Data Track
EXTD=
EXTT0=
EXTT1=
EXTT2=
EXTT3=
EXTT4=
EXTT5=
EXTT6=
EXTT7=
EXTT8=
EXTT9=
EXTT10=
EXTT11=
EXTT12=
EXTT13=
EXTT14=
EXTT15=
PLAYORDER=
